<svg width="109" height="56" viewBox="0 0 109 56" fill="none" xmlns="http://www.w3.org/2000/svg">
<path d="M47.274 24.2361C47.274 30.2566 43.5903 37.7547 38.6221 43.8773C36.1686 46.9009 33.4852 49.4828 30.9481 51.2903C28.3479 53.1427 26.156 54 24.637 54C23.118 54 20.9261 53.1427 18.3258 51.2903C15.7888 49.4828 13.1054 46.9009 10.6519 43.8773C5.68369 37.7547 2 30.2566 2 24.2361C2 11.9862 12.1039 2 24.637 2C37.1701 2 47.274 11.9862 47.274 24.2361Z" stroke="black" stroke-width="4"/>
<path d="M16.2728 9.07179C16.2728 14.9962 10.2874 13.4226 9.5392 13.33C3.36678 12.5663 0 9.50316 0 5.92444C0 2.34571 1.60211 0 5.42425 0C9.24639 0 16.2728 5.49307 16.2728 9.07179Z" transform="translate(6.71915 20.564)" fill="black"/>
<path d="M0 9.07179C0 14.9962 5.98538 13.4226 6.73356 13.33C12.906 12.5663 16.2728 9.50316 16.2728 5.92444C16.2728 2.34571 14.6706 0 10.8485 0C7.02637 0 0 5.49307 0 9.07179Z" transform="translate(25.9087 20.564)" fill="black"/>
<path d="M47.274 24.2361C47.274 30.2566 43.5903 37.7547 38.6221 43.8773C36.1686 46.9009 33.4852 49.4828 30.9481 51.2903C28.3479 53.1427 26.156 54 24.637 54C23.118 54 20.9261 53.1427 18.3258 51.2903C15.7888 49.4828 13.1054 46.9009 10.6519 43.8773C5.68369 37.7547 2 30.2566 2 24.2361C2 11.9862 12.1039 2 24.637 2C37.1701 2 47.274 11.9862 47.274 24.2361Z" transform="translate(59.726)" stroke="black" stroke-width="4"/>
<path d="M16.2728 9.07179C16.2728 14.9962 10.2874 13.4226 9.5392 13.33C3.36678 12.5663 0 9.50316 0 5.92444C0 2.34571 1.60211 0 5.42425 0C9.24639 0 16.2728 5.49307 16.2728 9.07179Z" transform="translate(66.4452 20.564)" fill="black"/>
<path d="M0 9.07179C0 14.9962 5.98538 13.4226 6.73356 13.33C12.906 12.5663 16.2728 9.50316 16.2728 5.92444C16.2728 2.34571 14.6706 0 10.8485 0C7.02637 0 0 5.49307 0 9.07179Z" transform="translate(85.6348 20.564)" fill="black"/>
</svg>
